<?xml version="1.0" encoding="UTF-8" standalone="no"?>
<!DOCTYPE svg PUBLIC "-//W3C//DTD SVG 1.1//EN"
 "http://www.w3.org/Graphics/SVG/1.1/DTD/svg11.dtd">
<!-- Generated by graphviz version 9.0.0 (0)
 -->
<!-- Title: snakemake_dag Pages: 1 -->
<svg width="502pt" height="692pt"
 viewBox="0.00 0.00 501.75 692.00" xmlns="http://www.w3.org/2000/svg" xmlns:xlink="http://www.w3.org/1999/xlink">
<g id="graph0" class="graph" transform="scale(1 1) rotate(0) translate(4 688)">
<title>snakemake_dag</title>
<polygon fill="white" stroke="none" points="-4,4 -4,-688 497.75,-688 497.75,4 -4,4"/>
<!-- 0 -->
<g id="node1" class="node">
<title>0</title>
<path fill="none" stroke="#56a2d8" stroke-width="2" stroke-dasharray="5,2" d="M160,-324C160,-324 12,-324 12,-324 6,-324 0,-318 0,-312 0,-312 0,-300 0,-300 0,-294 6,-288 12,-288 12,-288 160,-288 160,-288 166,-288 172,-294 172,-300 172,-300 172,-312 172,-312 172,-318 166,-324 160,-324"/>
<text text-anchor="middle" x="86" y="-302.88" font-family="sans" font-size="10.00">extract_outersp_surface_figures</text>
</g>
<!-- 1 -->
<g id="node2" class="node">
<title>1</title>
<path fill="none" stroke="#d8bc56" stroke-width="2" stroke-dasharray="5,2" d="M114,-396C114,-396 68,-396 68,-396 62,-396 56,-390 56,-384 56,-384 56,-372 56,-372 56,-366 62,-360 68,-360 68,-360 114,-360 114,-360 120,-360 126,-366 126,-372 126,-372 126,-384 126,-384 126,-390 120,-396 114,-396"/>
<text text-anchor="middle" x="91" y="-374.88" font-family="sans" font-size="10.00">abs_disterr</text>
</g>
<!-- 1&#45;&gt;0 -->
<g id="edge1" class="edge">
<title>1&#45;&gt;0</title>
<path fill="none" stroke="grey" stroke-width="2" d="M89.74,-359.34C89.27,-352.75 88.72,-345.08 88.19,-337.67"/>
<polygon fill="grey" stroke="grey" stroke-width="2" points="91.7,-337.65 87.49,-327.92 84.72,-338.15 91.7,-337.65"/>
</g>
<!-- 2 -->
<g id="node3" class="node">
<title>2</title>
<path fill="none" stroke="#78d856" stroke-width="2" stroke-dasharray="5,2" d="M266.88,-468C266.88,-468 157.12,-468 157.12,-468 151.12,-468 145.12,-462 145.12,-456 145.12,-456 145.12,-444 145.12,-444 145.12,-438 151.12,-432 157.12,-432 157.12,-432 266.88,-432 266.88,-432 272.88,-432 278.88,-438 278.88,-444 278.88,-444 278.88,-456 278.88,-456 278.88,-462 272.88,-468 266.88,-468"/>
<text text-anchor="middle" x="212" y="-446.88" font-family="sans" font-size="10.00">extract_outersp_surface</text>
</g>
<!-- 2&#45;&gt;1 -->
<g id="edge2" class="edge">
<title>2&#45;&gt;1</title>
<path fill="none" stroke="grey" stroke-width="2" d="M181.15,-431.15C166.5,-422.68 148.77,-412.42 132.93,-403.25"/>
<polygon fill="grey" stroke="grey" stroke-width="2" points="134.82,-400.31 124.41,-398.33 131.31,-406.37 134.82,-400.31"/>
</g>
<!-- 10 -->
<g id="node11" class="node">
<title>10</title>
<path fill="none" stroke="#d85656" stroke-width="2" stroke-dasharray="5,2" d="M481.75,-396C481.75,-396 278.25,-396 278.25,-396 272.25,-396 266.25,-390 266.25,-384 266.25,-384 266.25,-372 266.25,-372 266.25,-366 272.25,-360 278.25,-360 278.25,-360 481.75,-360 481.75,-360 487.75,-360 493.75,-366 493.75,-372 493.75,-372 493.75,-384 493.75,-384 493.75,-390 487.75,-396 481.75,-396"/>
<text text-anchor="middle" x="380" y="-374.88" font-family="sans" font-size="10.00">join__innersp_chamfer_and_outerp_surface</text>
</g>
<!-- 2&#45;&gt;10 -->
<g id="edge13" class="edge">
<title>2&#45;&gt;10</title>
<path fill="none" stroke="grey" stroke-width="2" d="M254.83,-431.15C276.17,-422.26 302.23,-411.41 325.03,-401.91"/>
<polygon fill="grey" stroke="grey" stroke-width="2" points="326.28,-405.18 334.16,-398.1 323.59,-398.71 326.28,-405.18"/>
</g>
<!-- 15 -->
<g id="node16" class="node">
<title>15</title>
<path fill="none" stroke="#56d0d8" stroke-width="2" stroke-dasharray="5,2" d="M236.12,-396C236.12,-396 157.88,-396 157.88,-396 151.88,-396 145.88,-390 145.88,-384 145.88,-384 145.88,-372 145.88,-372 145.88,-366 151.88,-360 157.88,-360 157.88,-360 236.12,-360 236.12,-360 242.12,-360 248.12,-366 248.12,-372 248.12,-372 248.12,-384 248.12,-384 248.12,-390 242.12,-396 236.12,-396"/>
<text text-anchor="middle" x="197" y="-374.88" font-family="sans" font-size="10.00">medial_cut_mask</text>
</g>
<!-- 2&#45;&gt;15 -->
<g id="edge18" class="edge">
<title>2&#45;&gt;15</title>
<path fill="none" stroke="grey" stroke-width="2" d="M208.21,-431.34C206.79,-424.67 205.12,-416.89 203.51,-409.39"/>
<polygon fill="grey" stroke="grey" stroke-width="2" points="206.99,-408.91 201.47,-399.86 200.14,-410.37 206.99,-408.91"/>
</g>
<!-- 3 -->
<g id="node4" class="node">
<title>3</title>
<path fill="none" stroke="#5673d8" stroke-width="2" stroke-dasharray="5,2" d="M262.62,-540C262.62,-540 175.38,-540 175.38,-540 169.38,-540 163.38,-534 163.38,-528 163.38,-528 163.38,-516 163.38,-516 163.38,-510 169.38,-504 175.38,-504 175.38,-504 262.62,-504 262.62,-504 268.62,-504 274.62,-510 274.62,-516 274.62,-516 274.62,-528 274.62,-528 274.62,-534 268.62,-540 262.62,-540"/>
<text text-anchor="middle" x="219" y="-518.88" font-family="sans" font-size="10.00">extract_wm_masks</text>
</g>
<!-- 3&#45;&gt;2 -->
<g id="edge3" class="edge">
<title>3&#45;&gt;2</title>
<path fill="none" stroke="grey" stroke-width="2" d="M217.23,-503.34C216.58,-496.75 215.81,-489.08 215.07,-481.67"/>
<polygon fill="grey" stroke="grey" stroke-width="2" points="218.57,-481.52 214.09,-471.91 211.6,-482.21 218.57,-481.52"/>
</g>
<!-- 4 -->
<g id="node5" class="node">
<title>4</title>
<path fill="none" stroke="#afd856" stroke-width="2" stroke-dasharray="5,2" d="M336.5,-612C336.5,-612 239.5,-612 239.5,-612 233.5,-612 227.5,-606 227.5,-600 227.5,-600 227.5,-588 227.5,-588 227.5,-582 233.5,-576 239.5,-576 239.5,-576 336.5,-576 336.5,-576 342.5,-576 348.5,-582 348.5,-588 348.5,-588 348.5,-600 348.5,-600 348.5,-606 342.5,-612 336.5,-612"/>
<text text-anchor="middle" x="288" y="-590.88" font-family="sans" font-size="10.00">convert_nifti_to_minc</text>
</g>
<!-- 4&#45;&gt;3 -->
<g id="edge4" class="edge">
<title>4&#45;&gt;3</title>
<path fill="none" stroke="grey" stroke-width="2" d="M270.59,-575.34C263.05,-567.69 254.05,-558.56 245.69,-550.08"/>
<polygon fill="grey" stroke="grey" stroke-width="2" points="248.28,-547.72 238.77,-543.06 243.3,-552.64 248.28,-547.72"/>
</g>
<!-- 12 -->
<g id="node13" class="node">
<title>12</title>
<path fill="none" stroke="#56d87b" stroke-width="2" stroke-dasharray="5,2" d="M416.62,-540C416.62,-540 311.38,-540 311.38,-540 305.38,-540 299.38,-534 299.38,-528 299.38,-528 299.38,-516 299.38,-516 299.38,-510 305.38,-504 311.38,-504 311.38,-504 416.62,-504 416.62,-504 422.62,-504 428.62,-510 428.62,-516 428.62,-516 428.62,-528 428.62,-528 428.62,-534 422.62,-540 416.62,-540"/>
<text text-anchor="middle" x="364" y="-518.88" font-family="sans" font-size="10.00">extract_innersp_masks</text>
</g>
<!-- 4&#45;&gt;12 -->
<g id="edge15" class="edge">
<title>4&#45;&gt;12</title>
<path fill="none" stroke="grey" stroke-width="2" d="M307.18,-575.34C315.66,-567.52 325.82,-558.16 335.19,-549.53"/>
<polygon fill="grey" stroke="grey" stroke-width="2" points="337.35,-552.3 342.34,-542.95 332.61,-547.15 337.35,-552.3"/>
</g>
<!-- 5 -->
<g id="node6" class="node">
<title>5</title>
<path fill="none" stroke="#56b9d8" stroke-width="2" stroke-dasharray="5,2" d="M358.25,-684C358.25,-684 217.75,-684 217.75,-684 211.75,-684 205.75,-678 205.75,-672 205.75,-672 205.75,-660 205.75,-660 205.75,-654 211.75,-648 217.75,-648 217.75,-648 358.25,-648 358.25,-648 364.25,-648 370.25,-654 370.25,-660 370.25,-660 370.25,-672 370.25,-672 370.25,-678 364.25,-684 358.25,-684"/>
<text text-anchor="middle" x="288" y="-662.88" font-family="sans" font-size="10.00">move_volumes_to_subject_dir</text>
</g>
<!-- 5&#45;&gt;4 -->
<g id="edge5" class="edge">
<title>5&#45;&gt;4</title>
<path fill="none" stroke="grey" stroke-width="2" d="M288,-647.34C288,-640.75 288,-633.08 288,-625.67"/>
<polygon fill="grey" stroke="grey" stroke-width="2" points="291.5,-625.93 288,-615.93 284.5,-625.93 291.5,-625.93"/>
</g>
<!-- 6 -->
<g id="node7" class="node">
<title>6</title>
<path fill="none" stroke="#d8a456" stroke-width="2" d="M328.25,-36C328.25,-36 205.75,-36 205.75,-36 199.75,-36 193.75,-30 193.75,-24 193.75,-24 193.75,-12 193.75,-12 193.75,-6 199.75,0 205.75,0 205.75,0 328.25,0 328.25,0 334.25,0 340.25,-6 340.25,-12 340.25,-12 340.25,-24 340.25,-24 340.25,-30 334.25,-36 328.25,-36"/>
<text text-anchor="middle" x="267" y="-14.88" font-family="sans" font-size="10.00">fit_innersp_surface_figures</text>
</g>
<!-- 7 -->
<g id="node8" class="node">
<title>7</title>
<path fill="none" stroke="#c6d856" stroke-width="2" d="M310.62,-108C310.62,-108 223.38,-108 223.38,-108 217.38,-108 211.38,-102 211.38,-96 211.38,-96 211.38,-84 211.38,-84 211.38,-78 217.38,-72 223.38,-72 223.38,-72 310.62,-72 310.62,-72 316.62,-72 322.62,-78 322.62,-84 322.62,-84 322.62,-96 322.62,-96 322.62,-102 316.62,-108 310.62,-108"/>
<text text-anchor="middle" x="267" y="-86.88" font-family="sans" font-size="10.00">mask_innersp_data</text>
</g>
<!-- 7&#45;&gt;6 -->
<g id="edge6" class="edge">
<title>7&#45;&gt;6</title>
<path fill="none" stroke="grey" stroke-width="2" d="M267,-71.34C267,-64.75 267,-57.08 267,-49.67"/>
<polygon fill="grey" stroke="grey" stroke-width="2" points="270.5,-49.93 267,-39.93 263.5,-49.93 270.5,-49.93"/>
</g>
<!-- 8 -->
<g id="node9" class="node">
<title>8</title>
<path fill="none" stroke="#568ad8" stroke-width="2" d="M418.88,-180C418.88,-180 249.12,-180 249.12,-180 243.12,-180 237.12,-174 237.12,-168 237.12,-168 237.12,-156 237.12,-156 237.12,-150 243.12,-144 249.12,-144 249.12,-144 418.88,-144 418.88,-144 424.88,-144 430.88,-150 430.88,-156 430.88,-156 430.88,-168 430.88,-168 430.88,-174 424.88,-180 418.88,-180"/>
<text text-anchor="middle" x="334" y="-158.88" font-family="sans" font-size="10.00">join__innersp_smtherr_and_surfaces</text>
</g>
<!-- 8&#45;&gt;7 -->
<g id="edge7" class="edge">
<title>8&#45;&gt;7</title>
<path fill="none" stroke="grey" stroke-width="2" d="M317.09,-143.34C309.77,-135.69 301.03,-126.56 292.92,-118.08"/>
<polygon fill="grey" stroke="grey" stroke-width="2" points="295.67,-115.89 286.23,-111.09 290.61,-120.73 295.67,-115.89"/>
</g>
<!-- 9 -->
<g id="node10" class="node">
<title>9</title>
<path fill="none" stroke="#97d856" stroke-width="2" stroke-dasharray="5,2" d="M422.12,-324C422.12,-324 337.88,-324 337.88,-324 331.88,-324 325.88,-318 325.88,-312 325.88,-312 325.88,-300 325.88,-300 325.88,-294 331.88,-288 337.88,-288 337.88,-288 422.12,-288 422.12,-288 428.12,-288 434.12,-294 434.12,-300 434.12,-300 434.12,-312 434.12,-312 434.12,-318 428.12,-324 422.12,-324"/>
<text text-anchor="middle" x="380" y="-302.88" font-family="sans" font-size="10.00">fit_innersp_surface</text>
</g>
<!-- 9&#45;&gt;8 -->
<g id="edge9" class="edge">
<title>9&#45;&gt;8</title>
<path fill="none" stroke="grey" stroke-width="2" d="M387.43,-287.17C393.99,-268.62 401.07,-239.12 391,-216 386.58,-205.85 379.15,-196.77 371.09,-189.11"/>
<polygon fill="grey" stroke="grey" stroke-width="2" points="373.62,-186.67 363.77,-182.78 369.04,-191.97 373.62,-186.67"/>
</g>
<!-- 13 -->
<g id="node14" class="node">
<title>13</title>
<path fill="none" stroke="#d86e56" stroke-width="2" stroke-dasharray="5,2" d="M369.75,-252C369.75,-252 298.25,-252 298.25,-252 292.25,-252 286.25,-246 286.25,-240 286.25,-240 286.25,-228 286.25,-228 286.25,-222 292.25,-216 298.25,-216 298.25,-216 369.75,-216 369.75,-216 375.75,-216 381.75,-222 381.75,-228 381.75,-228 381.75,-240 381.75,-240 381.75,-246 375.75,-252 369.75,-252"/>
<text text-anchor="middle" x="334" y="-230.88" font-family="sans" font-size="10.00">innersp_smtherr</text>
</g>
<!-- 9&#45;&gt;13 -->
<g id="edge16" class="edge">
<title>9&#45;&gt;13</title>
<path fill="none" stroke="grey" stroke-width="2" d="M368.39,-287.34C363.69,-280.18 358.13,-271.73 352.88,-263.73"/>
<polygon fill="grey" stroke="grey" stroke-width="2" points="355.84,-261.87 347.43,-255.43 349.99,-265.71 355.84,-261.87"/>
</g>
<!-- 10&#45;&gt;9 -->
<g id="edge11" class="edge">
<title>10&#45;&gt;9</title>
<path fill="none" stroke="grey" stroke-width="2" d="M380,-359.34C380,-352.75 380,-345.08 380,-337.67"/>
<polygon fill="grey" stroke="grey" stroke-width="2" points="383.5,-337.93 380,-327.93 376.5,-337.93 383.5,-337.93"/>
</g>
<!-- 11 -->
<g id="node12" class="node">
<title>11</title>
<path fill="none" stroke="#61d856" stroke-width="2" stroke-dasharray="5,2" d="M426.88,-468C426.88,-468 317.12,-468 317.12,-468 311.12,-468 305.12,-462 305.12,-456 305.12,-456 305.12,-444 305.12,-444 305.12,-438 311.12,-432 317.12,-432 317.12,-432 426.88,-432 426.88,-432 432.88,-432 438.88,-438 438.88,-444 438.88,-444 438.88,-456 438.88,-456 438.88,-462 432.88,-468 426.88,-468"/>
<text text-anchor="middle" x="372" y="-446.88" font-family="sans" font-size="10.00">create_innersp_chamfer</text>
</g>
<!-- 11&#45;&gt;10 -->
<g id="edge12" class="edge">
<title>11&#45;&gt;10</title>
<path fill="none" stroke="grey" stroke-width="2" d="M374.02,-431.34C374.77,-424.75 375.65,-417.08 376.5,-409.67"/>
<polygon fill="grey" stroke="grey" stroke-width="2" points="379.95,-410.24 377.61,-399.91 373,-409.45 379.95,-410.24"/>
</g>
<!-- 12&#45;&gt;11 -->
<g id="edge14" class="edge">
<title>12&#45;&gt;11</title>
<path fill="none" stroke="grey" stroke-width="2" d="M366.02,-503.34C366.77,-496.75 367.65,-489.08 368.5,-481.67"/>
<polygon fill="grey" stroke="grey" stroke-width="2" points="371.95,-482.24 369.61,-471.91 365,-481.45 371.95,-482.24"/>
</g>
<!-- 13&#45;&gt;8 -->
<g id="edge10" class="edge">
<title>13&#45;&gt;8</title>
<path fill="none" stroke="grey" stroke-width="2" d="M334,-215.34C334,-208.75 334,-201.08 334,-193.67"/>
<polygon fill="grey" stroke="grey" stroke-width="2" points="337.5,-193.93 334,-183.93 330.5,-193.93 337.5,-193.93"/>
</g>
<!-- 14 -->
<g id="node15" class="node">
<title>14</title>
<path fill="none" stroke="#d88556" stroke-width="2" d="M256,-252C256,-252 144,-252 144,-252 138,-252 132,-246 132,-240 132,-240 132,-228 132,-228 132,-222 138,-216 144,-216 144,-216 256,-216 256,-216 262,-216 268,-222 268,-228 268,-228 268,-240 268,-240 268,-246 262,-252 256,-252"/>
<text text-anchor="middle" x="200" y="-230.88" font-family="sans" font-size="10.00">invert_medial_cut_mask</text>
</g>
<!-- 14&#45;&gt;7 -->
<g id="edge8" class="edge">
<title>14&#45;&gt;7</title>
<path fill="none" stroke="grey" stroke-width="2" d="M203.75,-215.28C208.07,-196.82 216.13,-167.4 228,-144 232.36,-135.41 238.07,-126.74 243.78,-118.96"/>
<polygon fill="grey" stroke="grey" stroke-width="2" points="246.53,-121.12 249.85,-111.07 240.98,-116.86 246.53,-121.12"/>
</g>
<!-- 15&#45;&gt;14 -->
<g id="edge17" class="edge">
<title>15&#45;&gt;14</title>
<path fill="none" stroke="grey" stroke-width="2" d="M197.38,-359.02C197.88,-335.54 198.75,-294.11 199.35,-265.64"/>
<polygon fill="grey" stroke="grey" stroke-width="2" points="202.85,-265.94 199.56,-255.86 195.85,-265.79 202.85,-265.94"/>
</g>
</g>
</svg>
